<svg width="27" height="27" viewBox="0 0 27 27" fill="none" xmlns="http://www.w3.org/2000/svg">
<g clip-path="url(#clip0)">
<path d="M0 0H26.9325V14.5759L25.5987 16.6629L26.9325 18.5224V27H0V13.2605L0.8343 12.2995L0 11.382V0Z" fill="#858585"/>
<path d="M5.22717 18.8147V14.5759H9.70377L10.1844 15.2039L10.6812 14.5759H26.9325V18.5224C26.9325 18.5224 26.5086 18.8093 26.0172 18.8147H17.0181L16.4754 18.1462V18.8147H14.7015V17.6752C14.7015 17.6752 14.4585 17.8349 13.9347 17.8349H13.3299V18.8174H10.6434L10.1628 18.1759L9.67677 18.8174H5.22717V18.8147Z" fill="white"/>
<path d="M0 11.382L1.0098 9.02173H2.7567L3.3291 10.3426V9.02173H5.4999L5.8401 9.97722L6.1695 9.02173H15.9138V9.50083C15.9138 9.50083 16.4268 9.02173 17.2665 9.02173L20.4282 9.03256L20.9925 10.3372V9.02173H22.8096L23.3091 9.7715V9.02173H25.1424V13.2605H23.3091L22.8312 12.508V13.2605H20.1636L19.8963 12.592H19.1781L18.9135 13.2605H17.1045C16.3809 13.2605 15.9165 12.7895 15.9165 12.7895V13.2605H13.1841L12.6414 12.592V13.2605H2.4975L2.2302 12.592H1.5147L1.2474 13.2605H0V11.382Z" fill="white"/>
<path d="M1.36617 9.54395L0.00537109 12.7163H0.890971L1.14207 12.0802H2.60277L2.85387 12.7163H3.76107L2.40027 9.54395H1.36617ZM1.87107 10.2829L2.31657 11.3927H1.42557L1.87107 10.2829Z" fill="#858585"/>
<path d="M3.85291 12.7163V9.54395L5.11381 9.54936L5.84551 11.5957L6.56101 9.54395H7.81111V12.719H7.02001V10.3803L6.18031 12.719H5.48641L4.64401 10.3776V12.7163H3.85291Z" fill="#858585"/>
<path d="M8.35376 12.7163V9.54395H10.935V10.2531H9.15296V10.7972H10.8945V11.4658H9.15296V12.0288H10.935V12.719L8.35376 12.7163Z" fill="#858585"/>
<path d="M11.394 9.54395V12.719H12.1851V11.5903H12.5172L13.4676 12.719H14.4342L13.392 11.5497C13.8186 11.5145 14.2614 11.1464 14.2614 10.5752C14.2614 9.90665 13.7376 9.54665 13.1544 9.54665L11.394 9.54395ZM12.1851 10.2531H13.0896C13.3056 10.2531 13.4649 10.4236 13.4649 10.5861C13.4649 10.7972 13.2597 10.919 13.1004 10.919H12.1851V10.2531Z" fill="#858585"/>
<path d="M15.3928 12.7163H14.5854V9.54395H15.3928V12.7163Z" fill="#858585"/>
<path d="M17.3097 12.7163H17.1342C16.2891 12.7163 15.7788 12.0504 15.7788 11.1436C15.7788 10.2152 16.2864 9.54395 17.3502 9.54395H18.225V10.2964H17.3178C16.8858 10.2964 16.578 10.6348 16.578 11.1518C16.578 11.7662 16.929 12.0233 17.4312 12.0233H17.6391L17.3097 12.7163Z" fill="#858585"/>
<path d="M19.0323 9.54395L17.6715 12.719H18.5571L18.8082 12.0829H20.2689L20.52 12.719H21.4272L20.0664 9.54395H19.0323ZM19.5345 10.2829L19.98 11.3927H19.089L19.5345 10.2829Z" fill="#858585"/>
<path d="M21.5164 12.7163V9.54395H22.5235L23.8087 11.5388V9.54395H24.5998V12.719H23.6251L22.3075 10.6727V12.719H21.5164V12.7163Z" fill="#858585"/>
<path d="M5.7699 18.2707V15.0984H8.3538V15.8076H6.5718V16.3516H8.3133V17.0202H6.5718V17.5832H8.3538V18.2707H5.7699Z" fill="#858585"/>
<path d="M18.4248 18.2707V15.0984H21.0087V15.8076H19.2267V16.3516H20.9601V17.0202H19.2267V17.5832H21.0087V18.2707H18.4248Z" fill="#858585"/>
<path d="M8.45365 18.2707L9.71185 16.7035L8.42395 15.0984H9.42025L10.187 16.0918L10.9565 15.0984H11.915L10.6433 16.6846L11.9042 18.2707H10.9079L10.1627 17.2936L9.43645 18.2707H8.45365Z" fill="#858585"/>
<path d="M11.9988 15.0984V18.2734H12.8115V17.2719H13.6458C14.3505 17.2719 14.8851 16.8957 14.8851 16.1676C14.8851 15.564 14.4666 15.1011 13.7484 15.1011H11.9988V15.0984ZM12.8115 15.8157H13.689C13.9158 15.8157 14.0805 15.9564 14.0805 16.1811C14.0805 16.3922 13.9185 16.5465 13.6863 16.5465H12.8115V15.8157Z" fill="#858585"/>
<path d="M15.2253 15.0984V18.2707H16.0164V17.142H16.3485L17.2989 18.2707H18.2655L17.226 17.1014C17.6526 17.0662 18.0954 16.6981 18.0954 16.127C18.0954 15.4584 17.5716 15.0984 16.9884 15.0984H15.2253ZM16.0191 15.8076H16.9236C17.1396 15.8076 17.2989 15.9781 17.2989 16.1405C17.2989 16.3516 17.0937 16.4734 16.9344 16.4734H16.0191V15.8076Z" fill="#858585"/>
<path d="M21.3759 18.2707V17.5805H22.9608C23.1957 17.5805 23.2956 17.4533 23.2956 17.3152C23.2956 17.1826 23.1957 17.0473 22.9608 17.0473H22.2453C21.6243 17.0473 21.276 16.6683 21.276 16.0972C21.276 15.5883 21.5946 15.0984 22.518 15.0984H24.0597L23.7276 15.813H22.3938C22.14 15.813 22.0617 15.9483 22.0617 16.0755C22.0617 16.2082 22.1589 16.3516 22.3533 16.3516H23.1039C23.7978 16.3516 24.0975 16.7468 24.0975 17.2638C24.0975 17.8187 23.7627 18.2734 23.0661 18.2734H21.3759V18.2707Z" fill="#858585"/>
<path d="M24.2811 18.2707V17.5805H25.8659C26.1008 17.5805 26.2007 17.4533 26.2007 17.3152C26.2007 17.1826 26.1008 17.0473 25.8659 17.0473H25.1504C24.5295 17.0473 24.1812 16.6683 24.1812 16.0972C24.1812 15.5883 24.4998 15.0984 25.4231 15.0984H26.9648L26.6327 15.813H25.2989C25.0451 15.813 24.9668 15.9483 24.9668 16.0755C24.9668 16.2082 25.064 16.3516 25.2584 16.3516H26.009C26.7029 16.3516 27.0026 16.7468 27.0026 17.2638C27.0026 17.8187 26.6678 18.2734 25.9712 18.2734H24.2811V18.2707Z" fill="#858585"/>
</g>
<defs>
<clipPath id="clip0">
<rect width="27" height="27" fill="white"/>
</clipPath>
</defs>
</svg>
