<svg width="57" height="57" viewBox="0 0 57 57" fill="none" xmlns="http://www.w3.org/2000/svg">
<g clip-path="url(#clip0)">
<path d="M0 40.0366C0 32.3991 0 24.7616 0 17.2044C0.0803949 16.5613 0.241185 15.9181 0.241185 15.275C0.643159 7.87863 5.38646 2.33138 12.5416 0.803877C14.0691 0.482297 15.5966 0.321507 17.1241 0.0803223C24.7616 0.0803223 32.3992 0.0803223 39.9563 0.0803223C40.5994 0.160717 41.1622 0.321507 41.8054 0.321507C50.2468 0.723482 56.598 6.8335 56.8392 15.275C57.0804 24.1988 57.0804 33.0422 56.8392 41.9661C56.598 50.2468 50.3272 56.5979 42.0465 56.7587C33.1227 56.9999 24.1185 56.9999 15.1946 56.7587C7.79831 56.5979 2.17066 51.6135 0.723554 44.4583C0.32158 43.0112 0.241185 41.4837 0 40.0366ZM28.6206 51.7743C28.6206 51.7743 28.6206 51.6939 28.6206 51.7743C32.8011 51.7743 36.9817 51.8547 41.1622 51.6939C44.5388 51.6135 47.5938 50.4075 49.6841 47.5133C51.1312 45.5838 51.6939 43.2524 51.6939 40.9209C51.7743 32.8011 51.8547 24.6812 51.6939 16.4809C51.5331 9.48653 47.6742 5.54718 40.7602 5.38639C32.6403 5.2256 24.6008 5.2256 16.481 5.38639C9.4866 5.54718 5.62764 9.40613 5.46685 16.4005C5.30606 24.5204 5.30606 32.6403 5.46685 40.8405C5.62764 47.5937 9.56699 51.5331 16.3202 51.6939C20.4203 51.8547 24.5204 51.7743 28.6206 51.7743Z" fill="white"/>
<path d="M28.4598 43.2525C20.2595 43.1721 13.8279 36.5798 13.9083 28.4599C13.9887 20.2596 20.5811 13.828 28.7814 13.9888C36.9013 14.0692 43.2525 20.5812 43.2525 28.7011C43.1721 36.8209 36.5797 43.2525 28.4598 43.2525ZM38.0268 28.6207C38.0268 23.3146 33.8463 19.1341 28.5402 19.1341C23.2342 19.1341 19.0536 23.3146 19.0536 28.6207C19.0536 33.8463 23.2342 38.0269 28.4598 38.0269C33.8463 38.0269 38.0268 33.9267 38.0268 28.6207Z" fill="white"/>
<path d="M43.8152 9.88867C45.7446 9.88867 47.2721 11.3358 47.2721 13.2653C47.2721 15.1947 45.7446 16.7222 43.8956 16.7222C42.0465 16.7222 40.4386 15.1143 40.4386 13.2653C40.3582 11.4966 41.8857 9.88867 43.8152 9.88867Z" fill="white"/>
</g>
<defs>
<clipPath id="clip0">
<rect width="57" height="57" fill="white"/>
</clipPath>
</defs>
</svg>
