<svg width="37" height="37" viewBox="0 0 37 37" fill="none" xmlns="http://www.w3.org/2000/svg">
<circle cx="18.5" cy="18.5" r="18.5" fill="#FFD700" fill-opacity="0.15"/>
<g clip-path="url(#clip0)">
<path d="M7 23.1552C7 20.0734 7 16.9916 7 13.9422C7.03244 13.6827 7.09732 13.4232 7.09732 13.1636C7.25952 10.1792 9.17348 7.94079 12.0606 7.32443C12.677 7.19467 13.2934 7.12979 13.9097 7.03247C16.9915 7.03247 20.0733 7.03247 23.1227 7.03247C23.3822 7.06491 23.6093 7.12979 23.8688 7.12979C27.275 7.29199 29.8378 9.75744 29.9351 13.1636C30.0324 16.7645 30.0324 20.3329 29.9351 23.9337C29.8378 27.2751 27.3075 29.8378 23.9661 29.9027C20.3653 30 16.732 30 13.1312 29.9027C10.1467 29.8378 7.87588 27.8265 7.29196 24.9394C7.12976 24.3555 7.09732 23.7391 7 23.1552ZM18.5487 27.8914C18.5487 27.8914 18.5487 27.859 18.5487 27.8914C20.2355 27.8914 21.9224 27.9239 23.6093 27.859C24.9718 27.8265 26.2045 27.3399 27.048 26.1721C27.6319 25.3935 27.859 24.4528 27.859 23.512C27.8914 20.2356 27.9238 16.9591 27.859 13.6502C27.7941 10.828 26.237 9.23839 23.4471 9.17351C20.1707 9.10863 16.9267 9.10863 13.6502 9.17351C10.8279 9.23839 9.2708 10.7955 9.20592 13.6178C9.14104 16.8942 9.14104 20.1707 9.20592 23.4796C9.2708 26.2045 10.8604 27.7941 13.5853 27.859C15.2398 27.9239 16.8942 27.8914 18.5487 27.8914Z" fill="white"/>
<path d="M18.4838 24.4527C15.1749 24.4202 12.5797 21.7602 12.6121 18.4837C12.6446 15.1748 15.3046 12.5796 18.6135 12.6445C21.89 12.6769 24.4527 15.3046 24.4527 18.581C24.4203 21.8575 21.7602 24.4527 18.4838 24.4527ZM22.3441 18.5486C22.3441 16.4075 20.6573 14.7207 18.5162 14.7207C16.3752 14.7207 14.6883 16.4075 14.6883 18.5486C14.6883 20.6572 16.3752 22.3441 18.4838 22.3441C20.6573 22.3441 22.3441 20.6896 22.3441 18.5486Z" fill="white"/>
<path d="M24.6799 10.9902C25.4584 10.9902 26.0748 11.5742 26.0748 12.3527C26.0748 13.1313 25.4584 13.7476 24.7123 13.7476C23.9662 13.7476 23.3174 13.0988 23.3174 12.3527C23.2849 11.639 23.9013 10.9902 24.6799 10.9902Z" fill="white"/>
</g>
<defs>
<clipPath id="clip0">
<rect width="23" height="23" fill="white" transform="translate(7 7)"/>
</clipPath>
</defs>
</svg>
