<?xml version="1.0" encoding="utf-8"?>
<!-- Generator: Adobe Illustrator 26.0.2, SVG Export Plug-In . SVG Version: 6.00 Build 0)  -->
<svg version="1.1" id="Layer_1" xmlns="http://www.w3.org/2000/svg" xmlns:xlink="http://www.w3.org/1999/xlink" x="0px" y="0px"
	 viewBox="0 0 55 55" style="enable-background:new 0 0 55 55;" xml:space="preserve">
<style type="text/css">
	.st0{fill:#F9D507;}
	.st1{fill:#3A3E42;}
</style>
<g>
	<circle class="st0" cx="27.6" cy="27.4" r="27.5"/>
	<g>
		<polygon class="st1" points="43.1,28.1 43.1,26.4 46.7,26.4 46.7,24.4 43.1,24.4 43.1,22.7 47,22.7 47,20.6 40.8,20.6 40.8,30.1 
			47.2,30.1 47.2,28.1 		"/>
		<path class="st1" d="M11.1,28.3c-0.5,0-1-0.4-1-1H7.9c0,1.7,1.2,3.1,3.2,3.1c1.8,0,3.2-1.4,3.2-3.1c0-1.5-0.8-2.4-2.5-2.9
			c-0.8-0.2-1.7-0.4-1.7-1.1c0-0.6,0.5-0.9,1-0.9c0.6,0,1,0.4,1,1h2.2c-0.1-1.8-1.1-3.1-3.2-3.1c-1.8,0-3.2,1.4-3.2,3.1
			c0,1.6,0.9,2.4,2.5,2.9c0.8,0.3,1.7,0.5,1.7,1.2C12.1,28,11.7,28.3,11.1,28.3z"/>
		<path class="st1" d="M26.1,35.8c0-2.8-2.1-5.1-5.1-5.1c-2.5,0-4.4,1.6-5,3.8c-0.6-2-2.5-3.5-4.8-3.5H7.9v9.5h3.3
			c2.5,0,4.3-1.5,4.8-3.5c0.5,2.2,2.4,3.8,5,3.8C24,40.8,26.1,38.6,26.1,35.8z M11.2,38.4h-0.9v-5.3h0.9c1.6,0,2.6,1.2,2.6,2.6
			C13.8,37.3,12.7,38.4,11.2,38.4z M18.3,35.8c0-1.6,1.1-2.9,2.8-2.9c1.7,0,2.8,1.3,2.8,2.9c0,1.6-1.1,2.9-2.8,2.9
			C19.3,38.6,18.3,37.4,18.3,35.8z"/>
		<polygon class="st1" points="34.6,35.5 32.7,31 30.3,31 30.9,32.5 29.7,35.5 27.8,31 25.4,31 29.6,40.8 29.9,40.8 32.1,35.3 
			34.5,40.8 34.8,40.8 38.8,31 36.3,31 		"/>
		<polygon class="st1" points="44.9,36.6 41.2,31 38.8,31 38.8,40.5 41.1,40.5 41.1,34.8 44.8,40.5 47.2,40.5 47.2,31 44.9,31 		"/>
		<path class="st1" d="M40.6,20.6H38l-2.7,4.2l0,0v-4.2H33v9.2l-4.5-9.5H28l-4.5,9.6v-9.3h-2.3v3.7h-3.7v-3.7h-2.3v9.5h2.3v-3.8h3.7
			v3.8h2.2h0.1h2.4l0.5-1h3.8l0.5,1h2.4h0.1h2.2v-4.6l0,0l2.9,4.6h2.6l-3.4-5L40.6,20.6z M27.1,27.5l1.1-2.4l0,0l1.1,2.4H27.1z"/>
		<polygon class="st1" points="34.6,44.8 20.5,44.8 20.4,42.7 18.5,42.7 18.8,46.7 36.3,46.7 36.6,42.7 34.7,42.7 		"/>
		<path class="st1" d="M23.5,18.4h0.8l0.9-1.9h-1.7h-0.1h-5.9c0.6-4.1,5.5-6.1,10-6.1c1.4,0,2.8,0.2,4.1,0.5l0.8-1.7
			c-1.6-0.5-3.3-0.7-4.9-0.7c-5.5,0-11.3,2.5-12,7.9h-1.2v1.9h9h0.2V18.4z"/>
		<path class="st1" d="M28.8,18.4h2.1l1.2-2.4l0,0l1.9-4.1c1.9,1,3.3,2.5,3.6,4.6h-5.1l-0.9,1.9h9.2v-1.9h-1.2
			c-0.3-2.9-2.2-5-4.7-6.3l2.6-5.5l-1.7-0.8l-6,12.6L28.8,18.4z"/>
	</g>
</g>
</svg>
