<svg width="23" height="23" viewBox="0 0 23 23" fill="none" xmlns="http://www.w3.org/2000/svg">
<g clip-path="url(#clip0)">
<path d="M0 16.1549C0 13.0731 0 9.99132 0 6.94196C0.0324401 6.68244 0.0973202 6.42292 0.0973202 6.1634C0.25952 3.17891 2.17348 0.940548 5.06065 0.324187C5.67701 0.194427 6.29337 0.129547 6.90973 0.0322266C9.99154 0.0322266 13.0733 0.0322266 16.1227 0.0322266C16.3822 0.0646666 16.6093 0.129547 16.8688 0.129547C20.275 0.291747 22.8378 2.75719 22.9351 6.1634C23.0324 9.76424 23.0324 13.3326 22.9351 16.9335C22.8378 20.2748 20.3075 22.8376 16.9661 22.9025C13.3653 22.9998 9.73202 22.9998 6.13117 22.9025C3.14669 22.8376 0.875881 20.8263 0.29196 17.9391C0.12976 17.3552 0.0973202 16.7389 0 16.1549ZM11.5487 20.8912C11.5487 20.8912 11.5487 20.8587 11.5487 20.8912C13.2355 20.8912 14.9224 20.9236 16.6093 20.8587C17.9718 20.8263 19.2045 20.3397 20.048 19.1719C20.6319 18.3933 20.859 17.4525 20.859 16.5118C20.8914 13.2353 20.9238 9.95888 20.859 6.65C20.7941 3.82771 19.237 2.23815 16.4471 2.17327C13.1707 2.10839 9.92666 2.10839 6.65021 2.17327C3.82793 2.23815 2.2708 3.79527 2.20592 6.61756C2.14104 9.894 2.14104 13.1704 2.20592 16.4793C2.2708 19.2043 3.86037 20.7939 6.58533 20.8587C8.23977 20.9236 9.89422 20.8912 11.5487 20.8912Z" fill="white"/>
<path d="M11.4838 17.4529C8.17488 17.4205 5.57968 14.7604 5.61212 11.484C5.64456 8.17507 8.30464 5.57986 11.6135 5.64475C14.89 5.67719 17.4527 8.30483 17.4527 11.5813C17.4203 14.8577 14.7602 17.4529 11.4838 17.4529ZM15.3441 11.5488C15.3441 9.40779 13.6573 7.72091 11.5162 7.72091C9.37516 7.72091 7.68828 9.40779 7.68828 11.5488C7.68828 13.6574 9.37517 15.3443 11.4838 15.3443C13.6573 15.3443 15.3441 13.6899 15.3441 11.5488Z" fill="white"/>
<path d="M17.6799 3.99023C18.4584 3.99023 19.0748 4.57416 19.0748 5.35272C19.0748 6.13128 18.4584 6.74764 17.7123 6.74764C16.9662 6.74764 16.3174 6.09884 16.3174 5.35272C16.2849 4.63904 16.9013 3.99023 17.6799 3.99023Z" fill="white"/>
</g>
<defs>
<clipPath id="clip0">
<rect width="23" height="23" fill="white"/>
</clipPath>
</defs>
</svg>
