<svg width="32" height="25" viewBox="0 0 32 25" fill="none" xmlns="http://www.w3.org/2000/svg">
<g clip-path="url(#clip0)">
<path d="M5.82321 24.9437V23.2844C5.82321 22.6484 5.43866 22.2336 4.77943 22.2336C4.44981 22.2336 4.09273 22.3442 3.84552 22.7037C3.65324 22.3995 3.37856 22.2336 2.96654 22.2336C2.69186 22.2336 2.41718 22.3165 2.19744 22.6207V22.2889H1.62061V24.9437H2.19744V23.478C2.19744 23.0079 2.44464 22.7866 2.8292 22.7866C3.21375 22.7866 3.40603 23.0355 3.40603 23.478V24.9437H3.98286V23.478C3.98286 23.0079 4.25753 22.7866 4.61462 22.7866C4.99917 22.7866 5.19145 23.0355 5.19145 23.478V24.9437H5.82321ZM14.3658 22.2889H13.4319V21.4869H12.855V22.2889H12.3331V22.8143H12.855V24.0311C12.855 24.6395 13.1022 24.999 13.7615 24.999C14.0087 24.999 14.2834 24.916 14.4756 24.8054L14.3108 24.3076C14.146 24.4182 13.9537 24.4459 13.8164 24.4459C13.5417 24.4459 13.4319 24.28 13.4319 24.0034V22.8143H14.3658V22.2889ZM19.2551 22.2336C18.9255 22.2336 18.7057 22.3995 18.5684 22.6207V22.2889H17.9916V24.9437H18.5684V23.4503C18.5684 23.0079 18.7607 22.759 19.1177 22.759C19.2276 22.759 19.365 22.7866 19.4748 22.8143L19.6396 22.2612C19.5298 22.2336 19.3649 22.2336 19.2551 22.2336ZM11.8662 22.5101C11.5915 22.3165 11.2069 22.2336 10.7949 22.2336C10.1357 22.2336 9.6962 22.5654 9.6962 23.0908C9.6962 23.5333 10.0258 23.7822 10.6026 23.8652L10.8773 23.8928C11.1795 23.9481 11.3443 24.0311 11.3443 24.1693C11.3443 24.3629 11.1245 24.5012 10.74 24.5012C10.3554 24.5012 10.0533 24.3629 9.86101 24.2246L9.58633 24.6671C9.88848 24.8883 10.3005 24.999 10.7125 24.999C11.4816 24.999 11.9211 24.6395 11.9211 24.1417C11.9211 23.6716 11.564 23.4227 11.0147 23.3397L10.74 23.3121C10.4928 23.2844 10.3005 23.2291 10.3005 23.0632C10.3005 22.8696 10.4928 22.759 10.7949 22.759C11.1245 22.759 11.4542 22.8973 11.619 22.9802L11.8662 22.5101ZM27.1933 22.2336C26.8637 22.2336 26.644 22.3995 26.5066 22.6207V22.2889H25.9298V24.9437H26.5066V23.4503C26.5066 23.0079 26.6989 22.759 27.056 22.759C27.1659 22.759 27.3032 22.7866 27.4131 22.8143L27.5779 22.2612C27.468 22.2336 27.3032 22.2336 27.1933 22.2336ZM19.8319 23.6163C19.8319 24.4182 20.3813 24.999 21.2328 24.999C21.6173 24.999 21.892 24.916 22.1667 24.6948L21.892 24.2246C21.6723 24.3906 21.4525 24.4735 21.2053 24.4735C20.7383 24.4735 20.4087 24.1417 20.4087 23.6163C20.4087 23.1185 20.7383 22.7867 21.2053 22.759C21.4525 22.759 21.6723 22.842 21.892 23.0079L22.1667 22.5378C21.892 22.3165 21.6173 22.2336 21.2328 22.2336C20.3813 22.2336 19.8319 22.8143 19.8319 23.6163ZM25.1607 23.6163V22.2889H24.5839V22.6207C24.3916 22.3718 24.1169 22.2336 23.7598 22.2336C23.0182 22.2336 22.4414 22.8143 22.4414 23.6163C22.4414 24.4182 23.0182 24.999 23.7598 24.999C24.1444 24.999 24.4191 24.8607 24.5839 24.6118V24.9437H25.1607V23.6163ZM23.0457 23.6163C23.0457 23.1461 23.3478 22.759 23.8422 22.759C24.3092 22.759 24.6388 23.1185 24.6388 23.6163C24.6388 24.0864 24.3092 24.4735 23.8422 24.4735C23.3478 24.4459 23.0457 24.0864 23.0457 23.6163ZM16.1512 22.2336C15.3821 22.2336 14.8327 22.7866 14.8327 23.6163C14.8327 24.4459 15.3821 24.999 16.1787 24.999C16.5632 24.999 16.9478 24.8883 17.2499 24.6395L16.9752 24.2246C16.7555 24.3906 16.4808 24.5012 16.2061 24.5012C15.849 24.5012 15.492 24.3353 15.4096 23.8652H17.3598C17.3598 23.7822 17.3598 23.7269 17.3598 23.6439C17.3873 22.7866 16.8928 22.2336 16.1512 22.2336ZM16.1512 22.7313C16.5083 22.7313 16.7555 22.9526 16.8104 23.3674H15.437C15.492 23.0079 15.7392 22.7313 16.1512 22.7313ZM30.462 23.6163V21.238H29.8852V22.6207C29.6929 22.3718 29.4182 22.2336 29.0612 22.2336C28.3195 22.2336 27.7427 22.8143 27.7427 23.6163C27.7427 24.4182 28.3195 24.999 29.0612 24.999C29.4457 24.999 29.7204 24.8607 29.8852 24.6118V24.9437H30.462V23.6163ZM28.347 23.6163C28.347 23.1461 28.6491 22.759 29.1436 22.759C29.6105 22.759 29.9401 23.1185 29.9401 23.6163C29.9401 24.0864 29.6105 24.4735 29.1436 24.4735C28.6491 24.4459 28.347 24.0864 28.347 23.6163ZM9.06444 23.6163V22.2889H8.48761V22.6207C8.29534 22.3718 8.02066 22.2336 7.66357 22.2336C6.92194 22.2336 6.3451 22.8143 6.3451 23.6163C6.3451 24.4182 6.92194 24.999 7.66357 24.999C8.04812 24.999 8.3228 24.8607 8.48761 24.6118V24.9437H9.06444V23.6163ZM6.92193 23.6163C6.92193 23.1461 7.22408 22.759 7.7185 22.759C8.18546 22.759 8.51508 23.1185 8.51508 23.6163C8.51508 24.0864 8.18546 24.4735 7.7185 24.4735C7.22408 24.4459 6.92193 24.0864 6.92193 23.6163Z" fill="#6F6F6F"/>
<path d="M20.3264 2.12939H11.674V17.7815H20.3264V2.12939Z" fill="#BDBDBD"/>
<path d="M12.2233 9.95539C12.2233 6.7752 13.7065 3.95451 15.9864 2.12935C14.3108 0.801966 12.1958 0 9.88849 0C4.42235 0 0 4.45227 0 9.95539C0 15.4585 4.42235 19.9108 9.88849 19.9108C12.1958 19.9108 14.3108 19.1088 15.9864 17.7814C13.7065 15.9839 12.2233 13.1356 12.2233 9.95539Z" fill="#989898"/>
<path d="M32.0003 9.95539C32.0003 15.4585 27.578 19.9108 22.1118 19.9108C19.8045 19.9108 17.6895 19.1088 16.0139 17.7814C18.3212 15.9563 19.777 13.1356 19.777 9.95539C19.777 6.7752 18.2938 3.95451 16.0139 2.12935C17.6895 0.801966 19.8045 0 22.1118 0C27.578 0 32.0003 4.47993 32.0003 9.95539Z" fill="#D6D6D6"/>
</g>
<defs>
<clipPath id="clip0">
<rect width="32" height="25" fill="white"/>
</clipPath>
</defs>
</svg>
