<svg width="262" height="217" viewBox="0 0 262 217" fill="none" xmlns="http://www.w3.org/2000/svg">
<path d="M9.25386 99.0306C11.4227 99.7535 13.8808 101.055 16.0497 101.055H25.7373C33.8344 100.043 38.4614 93.9707 40.6302 86.1639C40.6302 85.7302 41.064 84.7182 41.064 84.7182V69.6829C41.064 69.6829 39.9073 66.3578 39.4735 65.3458C35.7141 54.503 26.4603 44.5276 18.9415 36.7209C15.0375 32.2392 14.0254 28.3358 14.0254 22.9867C14.0254 17.9267 13.447 13.0113 19.5199 13.0113C22.5563 13.0113 23.1347 14.3125 23.8576 17.3484C24.1468 21.6855 24.1468 26.3118 24.1468 30.5043C24.1468 30.5043 24.436 31.6609 24.8698 31.6609H36.2925C36.2925 31.6609 36.7263 31.2272 36.7263 30.7935C36.7263 30.5043 37.0155 29.6369 37.0155 29.3478V24.7215C37.0155 18.9387 37.3046 10.4091 33.4007 5.63824C33.1115 5.3491 31.0872 3.18055 30.2196 2.45769C29.9305 2.02398 28.1954 1.01199 27.7616 1.01199C24.8698 0 22.1225 0 18.9415 0C16.0497 0 13.5916 0.433711 10.6998 1.4457C5.92826 3.61426 2.45806 8.38508 1.01214 13.3005C1.01214 13.5896 0.722958 15.469 0.722958 15.7582C0 19.3724 0 22.6975 0 26.3118C0 41.058 12.5795 53.7801 21.8333 63.4664C25.8819 67.8035 27.0386 73.1526 27.0386 79.2245C27.0386 82.8388 26.7495 87.8987 22.5563 89.0553H21.8333C19.9536 89.0553 17.2064 88.6216 16.0497 87.1759L14.3146 84.7182C14.3146 83.9953 14.0254 80.6702 14.0254 79.9474V65.6349L13.5916 65.3458H0.722958L0.433775 65.6349V76.4777C0.433775 77.2005 0.722958 81.2485 0.722958 82.2605C1.44592 89.0553 2.16887 96.2838 9.25386 99.0306Z" fill="#FFD700"/>
<path d="M85.8874 55.8041C85.8874 55.5149 85.4536 53.9247 85.4536 53.4909L83.1401 34.5522C82.5618 30.6488 81.5496 26.3117 81.2605 22.5529C80.1037 15.3244 79.8145 8.09588 77.6457 1.01193C72.2958 0.578222 67.0905 0.867362 62.1744 0.867362C61.596 1.73478 59.1379 14.3124 59.1379 17.9267C58.7042 20.9626 57.4028 24.1432 57.1137 27.1792C56.3907 34.6968 54.8002 41.6362 54.0772 49.0093C51.6192 64.1891 50.3179 79.8027 48.2936 94.9826C48.2936 95.4163 47.426 98.886 47.426 99.3197C47.426 99.7534 47.1368 101.199 47.8598 101.199C49.0165 101.199 55.8123 101.633 56.9691 101.633H58.1258C62.0298 101.633 59.8609 84.7181 62.7527 84.7181H75.1876C75.9106 85.2964 77.2119 95.2718 77.2119 98.1632C77.2119 99.4643 77.2119 102.067 78.6578 102.067H91.3819L91.8156 101.633C91.8156 98.1632 90.9481 94.9826 90.6589 91.5129C90.3697 89.4889 87.0441 68.8154 85.8874 55.8041ZM73.5971 72.1405L73.3079 72.5742H63.7649C63.3311 72.4296 62.7527 71.8514 63.0419 70.9839C63.0419 68.3817 63.7649 65.6348 64.1986 62.888C65.3554 53.9247 67.5243 45.8287 67.6688 35.9979C67.6688 35.7088 68.1026 34.8414 68.8256 34.8414C70.1269 34.8414 72.1512 58.84 72.2958 58.6955C72.4404 71.2731 74.3201 70.2611 73.5971 72.1405Z" fill="#FFD700"/>
<path d="M104.251 63.1773V67.8035C104.251 69.3938 104.106 76.9114 104.106 78.7908C104.395 79.2246 103.672 86.0194 104.395 86.5976L105.118 87.0314L117.408 86.8868L118.131 86.3085V63.4664C118.131 63.4664 118.565 59.9967 118.854 58.8402C119.288 56.6716 120.011 54.3585 120.3 52.1899C120.3 51.7562 121.023 49.2985 121.023 49.1539C122.469 42.2146 123.626 35.4198 125.072 28.4804C126.951 19.6616 128.687 10.6982 131 1.87946V1.59032C131 1.30118 130.711 0.7229 129.843 0.7229H118.565L118.131 1.01204L117.698 2.02403C117.698 2.31317 117.408 5.06001 117.408 5.49372L113.071 30.5044C112.637 32.5284 112.637 35.4198 111.914 37.5883C111.914 37.8775 111.625 38.8895 111.191 38.8895C110.179 38.8895 110.179 37.5883 110.179 37.2992C110.179 37.01 109.89 35.8535 109.89 35.4198C107.576 26.7456 106.709 11.8548 104.395 3.03602C104.395 2.74688 104.106 1.87946 104.106 1.87946C103.672 1.30118 102.949 1.01204 102.226 1.01204H90.659H89.6469V2.02403C89.6469 4.04802 90.3698 6.50571 90.8036 8.5297C91.9603 13.5897 93.4062 18.7942 94.563 23.8541L101.937 53.7802C102.66 56.9607 103.961 60.1413 104.251 63.1773Z" fill="#FFD700"/>
<path d="M76.6336 115.801C75.9106 116.524 74.7539 116.813 74.3201 117.969C74.3201 119.704 74.0309 127.511 74.0309 129.101C74.0309 133.583 73.5972 154.257 73.5972 158.738C73.5972 159.027 73.308 159.75 72.585 159.75H64.0541C63.6203 159.75 62.8974 158.738 62.8974 158.304V150.353C62.8974 141.534 63.3312 133.294 63.3312 124.33V123.608C63.3312 122.596 62.8974 117.825 62.8974 116.668C62.8974 116.668 62.4636 115.656 62.1744 115.656H49.8841L49.4504 115.945C49.4504 115.945 49.1612 119.56 49.1612 121.15V123.608C49.1612 125.053 48.872 131.704 48.872 133.294C48.872 141.245 48.4382 195.459 48.4382 203.266V215.265L49.1612 215.988C49.1612 215.988 56.68 216.277 59.5718 216.277H60.2947C60.7285 216.277 61.7407 215.988 61.7407 215.554L62.8974 178.255L63.3312 173.629C63.3312 172.906 64.0541 172.472 64.3433 172.472H67.2351C68.8256 172.472 71.2837 172.472 72.7296 172.906L73.4526 173.629C73.4526 177.532 73.8864 195.314 73.8864 199.507V215.41L74.6093 216.133H83.574L83.8632 215.843V214.398C83.8632 213.964 85.3091 212.807 85.3091 212.807C86.4658 211.362 86.4658 209.627 86.4658 208.181C86.8996 198.64 87.6226 154.546 87.6226 145.149V117.536C88.2009 115.801 77.6457 116.813 76.6336 115.801Z" fill="#FFD700"/>
<path d="M202.573 158.015C198.09 153.823 193.174 150.064 191.439 143.992C191.439 143.558 191.15 142.257 191.15 142.257V131.415C191.15 128.812 194.765 126.788 196.789 126.788C198.38 126.788 200.549 127.222 201.271 129.246C201.705 130.113 202.428 132.716 202.428 132.716V146.161H215.152L216.02 145.438V131.415C215.152 126.788 214.429 122.162 211.104 118.981C209.513 117.247 207.055 116.813 205.175 115.945C203.874 115.656 200.259 114.355 200.259 114.355H190.716C190.716 114.355 188.258 115.223 187.391 115.656C177.992 120.138 176.402 129.246 176.402 138.932V145.149C177.269 150.209 180.739 157.582 184.21 161.341C187.391 165.099 190.572 168.858 194.042 172.183C202.284 180.135 205.609 181.436 205.609 193.001V197.628C205.609 198.351 205.32 200.519 205.32 200.953C204.453 203.555 201.127 204.712 198.958 204.712C195.777 204.712 193.753 203.555 191.873 200.953L191.439 200.085C191.439 199.218 191.15 196.037 191.15 195.17V180.568L190.427 180.135C190.427 180.135 182.764 179.846 179.583 179.846H177.558L176.836 180.568V191.556C176.836 191.989 177.269 197.049 177.269 198.206C177.558 204.856 179.149 207.892 184.21 212.229C187.824 215.554 191.584 217.289 196.934 217.289H199.392C200.259 217.289 204.742 216.856 205.609 216.856C208.79 216.422 210.815 215.265 213.562 213.097C220.068 206.88 220.791 201.965 220.791 193.146V188.086C220.791 187.652 220.358 185.628 220.358 185.339C218.333 174.207 210.236 165.533 202.573 158.015Z" fill="#FFD700"/>
<path d="M261.711 184.761L243.926 185.05C243.492 185.05 242.769 184.327 242.769 184.038V181.436C242.769 181.147 242.625 179.267 242.625 179.267C242.625 175.219 243.059 167.846 243.059 165.244C242.914 164.521 243.348 159.317 243.348 158.594C244.071 157.437 244.794 157.437 246.384 157.437C248.842 157.437 251.445 157.726 254.192 157.726C254.915 157.582 256.795 157.582 256.65 156.57C256.65 155.847 257.084 151.365 257.084 150.642C257.084 150.642 256.939 148.474 256.939 147.606V145.149C256.65 143.992 256.216 143.992 255.493 143.992C252.457 144.137 249.131 144.57 246.095 144.57C244.938 144.57 243.926 144.57 243.059 143.414V135.173C242.914 127.367 243.492 136.764 243.637 128.668C244.071 127.656 244.794 127.222 245.95 127.222C250.288 127.077 254.626 127.367 259.108 127.367H260.554L261.277 126.644C261.277 126.644 261.422 121.728 261.422 119.56V118.837C261.422 117.969 260.988 115.801 260.988 115.801L260.265 115.512C260.265 115.512 242.48 115.078 234.961 115.367H229.901L229.178 116.09V118.692C229.322 122.307 229.033 138.209 229.033 141.824C229.033 160.762 228.889 174.786 228.599 194.013V194.736C228.599 195.459 228.599 196.905 229.756 196.905C232.07 196.905 242.769 197.049 245.083 197.049C246.529 197.049 257.662 197.628 259.253 197.628H260.41C260.699 197.483 261.132 197.483 261.132 197.483C261.422 197.483 261.855 196.76 261.855 196.76L261.711 184.761Z" fill="#FFD700"/>
<path d="M40.7748 162.063C39.1843 162.063 32.8222 161.774 31.2317 161.774H30.3642C30.075 161.774 29.2075 161.774 29.2075 162.063V182.592C29.2075 182.592 28.0507 184.182 27.7615 184.905L27.3278 185.339C25.7373 186.062 24.1467 187.218 22.1225 187.218C19.809 187.218 17.0618 184.905 16.628 182.592C16.628 181.725 16.1942 177.821 16.1942 177.098V174.641C16.1942 154.979 16.628 153.967 16.628 134.161C16.628 130.547 17.3509 127.077 21.3995 127.077C22.1225 127.077 23.2792 127.077 24.1467 127.511C25.3035 128.234 26.4602 129.101 26.4602 130.547C26.4602 131.414 26.894 136.041 26.894 137.197V146.739L27.3278 147.172H38.8951L39.1843 146.739C40.0518 144.426 39.618 141.245 39.618 138.787C39.618 132.571 39.618 124.909 35.2803 120.138C32.9668 117.68 30.9426 115.656 27.7615 114.5C27.3278 114.5 26.4602 114.066 26.4602 114.066C21.1103 113.632 16.7726 113.198 11.2781 116.957C4.04851 122.017 2.458 130.258 2.02423 138.498C2.02423 140.089 1.59045 149.196 1.59045 151.076V176.52C2.02423 185.194 3.61474 194.447 12.8686 198.061C13.7361 198.495 16.4834 199.218 16.9172 199.218H27.3278C29.6412 198.495 32.8222 198.061 34.8465 196.037C41.7869 189.387 42.5099 180.424 42.5099 171.316V165.822C42.0761 165.244 41.2086 162.063 40.7748 162.063Z" fill="#FFD700"/>
<path d="M112.637 203.555C112.203 203.555 111.48 202.832 111.48 202.543V199.941C111.48 199.652 111.336 197.772 111.336 197.772C111.336 193.724 111.769 160.473 111.769 158.015C111.625 157.293 112.059 154.401 112.059 153.678C112.781 152.522 113.504 152.522 115.095 152.522C117.553 152.522 120.156 152.811 122.903 152.811C123.626 152.666 125.506 152.666 125.361 151.654C125.361 150.931 125.795 147.173 125.795 146.45C125.795 146.45 125.65 144.281 125.65 143.414V140.956C125.361 139.799 124.927 139.799 124.204 139.799C121.168 139.944 117.842 140.378 114.806 140.378C113.649 140.378 112.637 140.378 111.769 139.221V135.318C111.625 127.511 112.203 117.969 112.348 109.873C112.781 108.861 113.504 108.428 114.661 108.428C118.999 108.283 123.337 108.572 127.819 108.572H129.265L129.988 107.849C129.988 107.849 130.132 102.934 130.132 100.766V100.043C130.132 99.1752 129.699 97.0067 129.699 97.0067L129.12 96.8621C129.12 96.8621 111.336 96.4284 103.817 96.7176H98.9007L98.1777 97.4404V100.043C98.3223 103.657 98.0331 134.306 98.0331 137.92C98.0331 156.859 97.8885 193.724 97.5994 212.807V213.53C97.5994 214.253 97.5994 215.699 98.7561 215.699C101.07 215.699 111.769 215.843 114.083 215.843C115.529 215.843 129.12 216.422 130.711 216.422H131.868C132.157 216.277 132.591 216.277 132.591 216.277C132.88 216.277 133.313 215.554 133.313 215.554L133.024 203.41L112.637 203.555Z" fill="#FFD700"/>
<path d="M155.002 203.555C154.568 203.555 153.845 202.832 153.845 202.543V199.941C153.845 199.652 153.701 197.772 153.701 197.772C153.701 193.724 154.135 160.473 154.135 158.015C153.99 157.293 154.424 154.401 154.424 153.678C155.147 152.522 155.87 152.522 157.46 152.522C159.918 152.522 162.521 152.811 165.268 152.811C165.991 152.666 167.871 152.666 167.726 151.654C167.726 150.931 168.16 147.173 168.16 146.45C168.16 146.45 168.015 144.281 168.015 143.414V140.956C167.726 139.8 167.292 139.8 166.57 139.8C163.533 139.944 160.207 140.378 157.171 140.378C156.014 140.378 155.002 140.378 154.135 139.221V135.318C153.99 127.511 154.568 117.969 154.713 109.873C155.147 108.861 155.87 108.428 157.026 108.428C161.364 108.283 165.702 108.572 170.184 108.572H171.63L172.353 107.85C172.353 107.85 172.498 102.934 172.498 100.766V100.043C172.498 99.1753 172.064 97.0067 172.064 97.0067L171.341 96.7176C171.341 96.7176 153.556 96.2839 146.038 96.573H141.121L140.398 97.2959V99.8981C140.543 103.512 140.254 134.161 140.254 137.776C140.254 156.714 140.109 193.58 139.82 212.663V213.386C139.82 214.109 139.82 215.554 140.977 215.554C143.29 215.554 153.99 215.699 156.304 215.699C157.749 215.699 171.341 216.277 172.932 216.277H174.088C174.377 216.133 174.811 216.133 174.811 216.133C175.1 216.133 175.534 215.41 175.534 215.41L175.245 203.266L155.002 203.555Z" fill="#FFD700"/>
</svg>
