<svg width="37" height="37" viewBox="0 0 37 37" fill="none" xmlns="http://www.w3.org/2000/svg">
<circle cx="18.5" cy="18.5" r="18.5" fill="#FFD700" fill-opacity="0.15"/>
<path d="M18.5 30C24.8513 30 30 24.8513 30 18.5C30 12.1487 24.8513 7 18.5 7C12.1487 7 7 12.1487 7 18.5C7 24.8513 12.1487 30 18.5 30Z" stroke="white" stroke-width="2" stroke-miterlimit="10" stroke-linejoin="round"/>
<path d="M24.6932 27.7001V25.2232C24.6932 22.7463 21.2432 21.5078 18.5009 21.5078C15.7586 21.5078 12.3086 22.7463 12.3086 25.2232V27.7001" stroke="white" stroke-width="2" stroke-miterlimit="10"/>
<path d="M18.5005 21.5071C20.7121 21.5071 22.2159 19.8264 22.2159 17.7917V16.5533C22.2159 14.5187 20.7121 12.8379 18.5005 12.8379C16.289 12.8379 14.7852 14.5187 14.7852 16.5533V17.7917C14.7852 19.8264 16.289 21.5071 18.5005 21.5071Z" stroke="white" stroke-width="2" stroke-miterlimit="10"/>
</svg>
