<svg width="62" height="21" viewBox="0 0 62 21" fill="none" xmlns="http://www.w3.org/2000/svg">
<path d="M26.8589 20.532H21.8606L24.9914 0.537842H30.0171L26.8589 20.532Z" fill="#6F6F6F"/>
<path d="M45.0668 1.01882C44.0781 0.622895 42.5128 0.17041 40.5629 0.17041C35.5921 0.17041 32.1043 2.88532 32.0768 6.788C32.0494 9.67259 34.576 11.2563 36.4709 12.2178C38.4208 13.2076 39.0799 13.8298 39.0799 14.7065C39.0524 16.0357 37.5145 16.6578 36.059 16.6578C34.0542 16.6578 32.9831 16.3467 31.3353 15.5832L30.6762 15.2721L30.0171 19.7687C31.198 20.3343 33.3676 20.815 35.6195 20.8433C40.8924 20.8433 44.3253 18.1567 44.3528 13.9995C44.3802 11.7088 43.0346 9.98367 40.1235 8.54138C38.3658 7.63641 37.2948 7.01424 37.2948 6.08099C37.3223 5.23258 38.2011 4.35589 40.1784 4.35589C41.7987 4.29933 43.0071 4.72354 43.9134 5.11946L44.4077 5.34571L45.0668 1.01882Z" fill="#6F6F6F"/>
<path d="M51.7403 13.4619C52.1522 12.3024 53.7451 7.86244 53.7451 7.86244C53.7176 7.919 54.157 6.70295 54.4042 5.93938L54.7612 7.66448C54.7612 7.66448 55.7224 12.4438 55.9147 13.4619C55.1457 13.4619 52.7564 13.4619 51.7403 13.4619ZM57.9469 0.537842H54.0747C52.8663 0.537842 51.96 0.905486 51.4382 2.20638L43.9683 20.5603H49.2412C49.2412 20.5603 50.12 18.0999 50.2848 17.5626C50.8615 17.5626 55.9971 17.5626 56.7386 17.5626C56.8759 18.2696 57.3428 20.5603 57.3428 20.5603H61.984L57.9469 0.537842Z" fill="#6F6F6F"/>
<path d="M17.6588 0.537842L12.7429 14.1689L12.1936 11.3975C11.2873 8.23008 8.43119 4.75161 5.24548 3.02651L9.74941 20.5037H15.0498L22.9591 0.537842H17.6588Z" fill="#6F6F6F"/>
<path d="M8.15651 0.537842H0.0823893L0 0.933766C6.31649 2.6023 10.4909 6.58983 12.1936 11.3975L10.4359 2.20638C10.1613 0.933766 9.25503 0.566122 8.15651 0.537842Z" fill="#6F6F6F"/>
</svg>
